<?xml version="1.0" encoding="utf-8"?>
<!-- Generator: Adobe Illustrator 23.0.0, SVG Export Plug-In . SVG Version: 6.00 Build 0)  -->
<svg version="1.1" id="图层_1" xmlns="http://www.w3.org/2000/svg" xmlns:xlink="http://www.w3.org/1999/xlink" x="0px" y="0px"
	 viewBox="0 0 108 36" style="enable-background:new 0 0 108 36;" xml:space="preserve">
<style type="text/css">
	.st0{fill:url(#SVGID_1_);}
</style>
<linearGradient id="SVGID_1_" gradientUnits="userSpaceOnUse" x1="0" y1="20" x2="108" y2="20" gradientTransform="matrix(1 0 0 -1 0 38)">
	<stop  offset="0" style="stop-color:#0055FF"/>
	<stop  offset="1" style="stop-color:#00BBFF"/>
</linearGradient>
<path class="st0" d="M18,29.3c6.2,0,11.3-5,11.3-11.3c0-6.2-5-11.3-11.3-11.3H0V0h18c9.9,0,18,8.1,18,18s-8.1,18-18,18H4.5l6.7-6.7
	H18z M54.4,7.2c-8,0-14.4,6.4-14.4,14.4S46.5,36,54.4,36s14.4-6.4,14.4-14.4S62.4,7.2,54.4,7.2z M63.9,21.6c0,5-4,9-9,9s-9-4-9-9
	s4-9,9-9S63.9,16.6,63.9,21.6z M78.3,36V21.6c0-5,4-9,9-9l5.4-5.4h-5.4c-8,0-14.4,6.4-14.4,14.4V36H78.3z M93.6,36V21.6c0-5,4-9,9-9
	l5.4-5.4h-5.4c-8,0-14.4,6.4-14.4,14.4V36H93.6z"/>
</svg>
